<?xml version="1.0" encoding="UTF-8" standalone="no"?>
<svg
   width="127.99999"
   height="128"
   viewBox="0 0 33.866664 33.866668"
   version="1.1"
   id="svg5"
   xml:space="preserve"
   inkscape:version="1.2.1 (9c6d41e410, 2022-07-14)"
   sodipodi:docname="edit-anime-face.svg"
   inkscape:export-filename="edit-anime-face.svg"
   inkscape:export-xdpi="96"
   inkscape:export-ydpi="96"
   xmlns:inkscape="http://www.inkscape.org/namespaces/inkscape"
   xmlns:sodipodi="http://sodipodi.sourceforge.net/DTD/sodipodi-0.dtd"
   xmlns="http://www.w3.org/2000/svg"
   xmlns:svg="http://www.w3.org/2000/svg"><sodipodi:namedview
   id="namedview6"
   pagecolor="#ffffff"
   bordercolor="#000000"
   borderopacity="0.25"
   inkscape:showpageshadow="2"
   inkscape:pageopacity="0.0"
   inkscape:pagecheckerboard="0"
   inkscape:deskcolor="#d1d1d1"
   showgrid="false"
   inkscape:zoom="1.84375"
   inkscape:cx="61.288136"
   inkscape:cy="64"
   inkscape:window-width="1920"
   inkscape:window-height="1009"
   inkscape:window-x="1432"
   inkscape:window-y="441"
   inkscape:window-maximized="1"
   inkscape:current-layer="layer1" />

     <defs
   id="defs2" /><g
   inkscape:label="Layer 1"
   inkscape:groupmode="layer"
   id="layer1"><path
     style="fill:#000000;stroke-width:0.212204"
     d="M 12.535146,30.045852 C 11.221514,29.598656 9.9012143,28.62493 9.6168973,27.194093 c -0.01504,-1.30257 1.8461827,-0.654114 1.6731097,0.36183 0.79407,0.975319 2.313951,1.561628 3.434044,0.772501 0.953212,-0.33692 1.221043,-2.423 2.349787,-1.797204 0.511823,0.929526 1.118614,1.968733 2.280733,2.145859 1.138464,0.176472 2.314539,-0.475684 2.778195,-1.530084 0.207851,-0.983757 1.62983,-0.972162 1.46,0.135896 -0.177048,1.082542 -1.123321,1.886352 -2.03796,2.397009 -1.27896,0.697547 -2.900616,0.552217 -4.066238,-0.306085 -0.547569,-0.52103 -1.074928,-0.69347 -1.6275,-0.0818 -0.976516,0.57701 -2.178692,1.237188 -3.325922,0.753825 z m 2.913636,-5.307221 c -0.963096,-0.228906 -0.586334,-2.052176 0.333649,-1.137996 0.437698,0.387305 0.863253,1.130053 1.299921,0.349781 0.432311,-0.728337 1.844805,-0.488896 1.053419,0.420784 -0.543481,0.473718 -1.303512,1.682905 -2.082065,0.922913 -0.21146,-0.174517 -0.390319,-0.384551 -0.604924,-0.555482 z M 7.0751383,23.522163 C 5.3726074,22.624621 5.0609099,20.191611 5.9836356,18.632488 6.6332618,17.59306 8.1678443,16.925681 9.2368983,17.750787 c 1.8615617,1.288323 1.8983397,4.467975 -0.05233,5.693245 -0.615581,0.420481 -1.465446,0.458862 -2.109415,0.07812 z m 2.496906,-4.107389 c 0.371931,-1.394232 -1.956363,-0.730309 -1.059064,0.305964 0.295781,0.547724 1.078776,0.286343 1.059064,-0.305964 z m 14.7904847,4.153537 c -2.194061,-1.147899 -2.239939,-4.823944 -0.0321,-5.983025 1.277836,-0.633943 2.820705,0.307598 3.255861,1.57174 0.736993,1.675114 0.005,4.078196 -1.884438,4.575745 -0.447432,0.101954 -0.930595,0.04571 -1.33932,-0.164466 z m 2.644319,-3.693778 c 0.796328,-1.128457 -1.444707,-1.6045 -1.243577,-0.264347 0.06488,0.587109 1.017182,0.966494 1.243577,0.264347 z"
     id="path6860"
     sodipodi:nodetypes="ssssscsssssscscssssscscsssscssssssssssssssss" /></g></svg>
